<?xml version="1.0" encoding="iso-8859-1"?>
<!-- Uploaded to: SVG Repo, www.svgrepo.com, Generator: SVG Repo Mixer Tools -->
<svg version="1.1" id="Layer_1" xmlns="http://www.w3.org/2000/svg" xmlns:xlink="http://www.w3.org/1999/xlink" 
	 viewBox="0 0 512 512" xml:space="preserve">
<path style="fill:#FFF0B4;" d="M427.101,217.57c9.305-12.965,14.792-28.855,14.792-46.034c0-31.624-18.565-58.903-45.387-71.563
	c0.109-0.479,0.218-0.952,0.324-1.44c-1.779-43.24-37.513-77.871-81.182-77.871c-9.22,0-18.273,1.589-26.8,4.58
	c-2.21-2.21-4.542-4.303-6.99-6.266C266.601,6.739,247.414,0,227.831,0c-34.798,0-64.86,20.675-78.543,50.386
	c-39.431,5.553-69.863,39.516-69.863,80.456c0,6.59,0.83,13.117,2.4,19.441c-7.253,7.581-11.718,17.853-11.718,29.173
	c0,16.819,9.841,31.329,24.072,38.116h332.921V217.57z"/>
<g>
	<circle style="fill:#FFFFFF;" cx="171.923" cy="133.247" r="17.38"/>
	<circle style="fill:#FFFFFF;" cx="253.03" cy="168.007" r="17.38"/>
	<circle style="fill:#FFFFFF;" cx="310.963" cy="110.073" r="17.38"/>
</g>
<polygon style="fill:#D80027;" points="88.369,214.353 127.725,512 389.925,512 429.282,214.353 "/>
<rect x="204.366" y="233.402" style="fill:#FF9811;" width="110.456" height="264.176"/>
<g>
	<polygon style="fill:#FFFFFF;" points="235.14,492.947 214.74,238.966 180.092,241.75 200.268,492.947 	"/>
	<polygon style="fill:#FFFFFF;" points="316.999,492.947 337.175,241.75 302.526,238.966 282.125,492.947 	"/>
</g>
<g>
	<polygon style="fill:#A2001D;" points="92.88,248.468 424.771,248.468 429.282,214.353 88.369,214.353 	"/>
	<polygon style="fill:#A2001D;" points="123.129,477.24 127.725,512 389.925,512 394.522,477.24 	"/>
</g>
</svg>